<svg xmlns="http://www.w3.org/2000/svg" xmlns:xlink="http://www.w3.org/1999/xlink" viewBox="0 0 100 100" enable-background="new 0 0 100 100"><g><g enable-background="new"><defs><path id="a" d="M54.4-34.8c10.9 6.3 13.8 3.3 13.8 3.3l4.3-3-9.1-12.9s-7.9 5.2-10.2 3.7l-19.1-27.3c-.6-2.6 6.8-8.3 6.8-8.3l-9.1-12.9-4.3 3s-3.6 1.7-1.5 14.2c3.6 21.9 21.9 36.4 28.4 40.2z"/></defs><use xlink:href="#a" overflow="visible" fill-rule="evenodd" clip-rule="evenodd" fill="#E9E9E9"/><clipPath id="b"><use xlink:href="#a" overflow="visible"/></clipPath><g clip-path="url(#b)"><defs><path id="c" d="M2.3-115.1h87.3v114.2h-87.3z"/></defs><use xlink:href="#c" overflow="visible" fill="#E9E9E9"/><clipPath id="d"><use xlink:href="#c" overflow="visible"/></clipPath><path clip-path="url(#d)" fill="#E9E9E9" d="M95.844-30.436l-43.827 30.688-59.712-85.279 43.827-30.688z"/></g></g><path fill="#B2B2B2" d="M77.7 70l-7.7 7.7-20-20.1-20 20.1-7.7-7.7 20.1-20-20.1-20 7.7-7.7 20 20.1 20-20.1 7.7 7.7-20.1 20z"/></g></svg>